<svg id="Layer_1" data-name="Layer 1" xmlns="http://www.w3.org/2000/svg" viewBox="0 0 962.04 927.34"><defs><style>.cls-1{fill:#efcbdb;}</style></defs><path class="cls-1" d="M654.75,152.3l27.63,85.06A125.34,125.34,0,0,0,801.58,324H891c121.4,0,171.88,155.35,73.66,226.71l-72.35,52.57a125.35,125.35,0,0,0-45.53,140.12l27.64,85.06C912,943.88,779.79,1039.9,681.57,968.54L609.22,916a125.31,125.31,0,0,0-147.33,0l-72.35,52.57c-98.22,71.36-230.38-24.66-192.86-140.12l27.63-85.06a125.33,125.33,0,0,0-45.52-140.12l-72.36-52.57C8.21,479.31,58.69,324,180.1,324h89.43a125.32,125.32,0,0,0,119.19-86.6l27.64-85.06C453.88,36.84,617.23,36.84,654.75,152.3Z" transform="translate(-54.53 -65.7)"/></svg>