<svg id="Calque_1" data-name="Calque 1" xmlns="http://www.w3.org/2000/svg" viewBox="0 0 2365.28 1921.85"><defs><style>.cls-1{fill:#efcbdb;}</style></defs><path class="cls-1" d="M2500.72,531a1018.57,1018.57,0,0,1-279.54,76.87,486.39,486.39,0,0,0,213.76-268.61,967.46,967.46,0,0,1-307.78,117.82c-136.3-145.47-347.11-192.92-531.89-119.6-185.38,73.48-307.19,251.91-306.6,451,0,38.14,2.81,75.09,10.94,110.28A1372,1372,0,0,1,300,391.88c-129.35,221.74-64,505.28,149,647.79-76.72-1.63-151.82-22.48-218.79-59.43v5.18c0,231.05,162.18,429.74,388.65,476.45-41.69,10.94-84.41,16.71-127.72,16.12a447.92,447.92,0,0,1-91.81-8c64.75,196.91,246,332.62,453.4,337.79a977.65,977.65,0,0,1-601.23,206.67c-39.76,0-77.91-1.78-116-7,221.74,143.25,479.85,218.35,743.73,217.76,892.15,0,1380.14-739.15,1380.14-1380.15,0-21.28-.59-41.54-1.78-62.38A967.76,967.76,0,0,0,2500.72,531Zm0,0" transform="translate(-135.45 -303.42)"/></svg>