<svg id="Calque_1" data-name="Calque 1" xmlns="http://www.w3.org/2000/svg" viewBox="0 0 2243.99 1412.27"><defs><style>.cls-1{fill:#efcbdb;}</style></defs><path id="behance" class="cls-1" d="M792.61,574.55q100.78,0,184,17.83T1119,650.72q59.28,40.57,92,107.83t32.66,166.17q0,106.77-48.49,178t-143.36,116.68q130.52,37.57,194.84,131.51T1311,1577.44q0,106.77-41.51,185T1157.62,1890q-70.32,49.56-160.19,73.18a723,723,0,0,1-184.87,23.68H128.05V574.55Zm-39.52,571.57q83,0,136.51-39.52T943,978.08q0-49.37-17.83-81c-11.84-21.07-27.67-37.65-47.49-49.49s-42.51-20.07-68.19-24.69A453.64,453.64,0,0,0,729.28,816H438.7v330.35l314.39-.25Zm17.83,599.24a416,416,0,0,0,87-8.85q41.52-9,73.18-29.67t50.49-56.35c12.46-23.68,18.82-54.1,18.82-91,0-72.43-20.44-124.29-61.33-155.2s-95-46.5-162.19-46.5H438.7v387.69l332.22-.12Zm930.71-29.67q63.21,61.33,182,61.33,85.08,0,146.36-42.51t75.17-90h247.2q-59.28,184-182,263t-296.69,79.16q-120.6,0-217.53-38.52T1492,1838.35q-67.31-71.24-103.84-170t-36.52-217.53q0-114.63,37.52-213.55t106.83-171q69.19-72.18,165.18-113.69T1873.79,911q130.51,0,227.5,50.49T2260.48,1097q62.26,85.08,90,193.85t19.82,227.5H1632.57c3.86,90.63,26.93,156.57,69.06,197.34Zm317.51-537.91q-50.49-55.35-153.33-55.35-67.32,0-111.7,22.69c-29.67,15.21-53.35,33.91-71.18,56.35s-30.29,46.12-37.52,71.18-11.59,47.49-12.84,67.19h456.88q-20-106.59-70.31-162.06ZM1584.45,646.23h570.82V804.55H1584.45Z" transform="translate(-128.05 -574.55)"/></svg>