<svg id="Layer_2" data-name="Layer 2" xmlns="http://www.w3.org/2000/svg" viewBox="0 0 1768.24 1673.06"><defs><style>.cls-1{fill:#efcbdb;}</style></defs><path class="cls-1" d="M2120.91,1192.57l-757-757a136.34,136.34,0,0,0-192.82,0L965,641.7c-.74-1.24-1.52-2.46-2.34-3.65V565.4a52.08,52.08,0,0,0-52.08-52.08H775.79A52.09,52.09,0,0,0,723.7,565.4V873.83a52.77,52.77,0,0,0,.7,8.49L432.53,1174.19a136.34,136.34,0,0,0,0,192.81l6.13,6.13a160.45,160.45,0,0,0,226.93,0l42.79-42.79v602a136.34,136.34,0,0,0,136.34,136.34h888.51a136.34,136.34,0,0,0,136.34-136.34V1361l24.41,24.41a160.47,160.47,0,0,0,226.93,0h0A136.34,136.34,0,0,0,2120.91,1192.57Z" transform="translate(-392.6 -395.67)"/></svg>