<svg id="Calque_1" data-name="Calque 1" xmlns="http://www.w3.org/2000/svg" viewBox="0 0 1894.45 1894.45"><defs><style>.cls-1{fill:#efcbdb;stroke:#d8d8d8;stroke-miterlimit:10;}</style></defs><circle class="cls-1" cx="947.22" cy="947.22" r="234.79"/><path class="cls-1" d="M2258.18,793.14a623.07,623.07,0,0,0-39.57-214.06,380.84,380.84,0,0,0-219.73-219.73,623.31,623.31,0,0,0-214.06-39.58c-122-6.62-157.91-6.62-466.73-6.62s-344.71,0-466.74,6.62A623.21,623.21,0,0,0,637.3,359.35,380.83,380.83,0,0,0,417.56,579.08,623.07,623.07,0,0,0,378,793.14c-6.63,122-6.63,157.91-6.63,466.73s0,344.7,6.63,466.74a657.14,657.14,0,0,0,39.57,214.81,381.67,381.67,0,0,0,86.15,132.83,375.28,375.28,0,0,0,133.59,86.14A623,623,0,0,0,851.35,2200c122,6.63,157.91,6.63,466.74,6.63s344.7,0,466.73-6.63a623.08,623.08,0,0,0,214.06-39.58,375.33,375.33,0,0,0,133.58-86.14,381.67,381.67,0,0,0,86.15-132.83,627.22,627.22,0,0,0,39.57-214.81c6.63-122,6.63-157.92,6.63-466.74S2264.81,915.17,2258.18,793.14Zm-240.37,756.34v1a539.79,539.79,0,0,1-37,170.5,364.5,364.5,0,0,1-201.56,201.56,543.9,543.9,0,0,1-171.54,33.32H1028.48a544,544,0,0,1-171.54-33.32A332.35,332.35,0,0,1,733,1841.26,335.81,335.81,0,0,1,655.38,1721a522.51,522.51,0,0,1-32.19-171.54V970.27a522.56,522.56,0,0,1,32.19-171.55A332.32,332.32,0,0,1,736.7,674.8a341,341,0,0,1,120.24-77.63,544,544,0,0,1,171.54-33.33h579.21a543.91,543.91,0,0,1,171.54,33.33,332.23,332.23,0,0,1,123.93,81.32,335.77,335.77,0,0,1,77.63,120.23,544,544,0,0,1,33.33,171.55v289.6C2014.12,1454.8,2020.75,1474.78,2017.81,1549.48Z" transform="translate(-370.86 -312.65)"/><path class="cls-1" d="M1866.15,846.06a224.74,224.74,0,0,0-133.49-133.49,379.52,379.52,0,0,0-130.56-20.73h-568a375.26,375.26,0,0,0-130.56,24.8C842.55,738,794.07,785,770,845.3a399.17,399.17,0,0,0-20,130.55v568a403.11,403.11,0,0,0,24.81,130.55,222.74,222.74,0,0,0,133.48,133.49,408.2,408.2,0,0,0,125.73,24.81h568a375.27,375.27,0,0,0,130.56-24.81,222.78,222.78,0,0,0,133.49-133.49,375.2,375.2,0,0,0,24.8-130.55v-568a357.45,357.45,0,0,0-24.8-130.55Zm-548.06,775.46a360.56,360.56,0,0,1-360.61-361.65c0-199.66,162-361.65,361.74-361.65,200,.38,361.65,162.37,361.27,362.41C1680.49,1460.29,1517.75,1621.9,1318.09,1621.52Zm378.68-652.29a85.16,85.16,0,0,1,0-169.37,85.16,85.16,0,0,1,0,169.37Z" transform="translate(-370.86 -312.65)"/></svg>