<svg id="Calque_1" data-name="Calque 1" xmlns="http://www.w3.org/2000/svg" viewBox="0 0 2169.19 2194.83"><defs><style>.cls-1{fill:#efcbdb;}</style></defs><path class="cls-1" d="M2116.58,193.1H384.76c-120.79,0-218.67,98.22-218.67,219.42v1756c0,121.2,97.88,219.43,218.67,219.43H2116.58c120.81,0,218.7-98.23,218.7-219.43v-1756C2335.28,291.32,2237.39,193.1,2116.58,193.1ZM862.16,1929.74H570.31V990.87H862.16ZM714.31,875.59c-92.15,0-151.66-65.28-151.66-145.9,0-82.56,61.43-145.9,155.49-145.9s151.69,63.34,153.59,145.9c0,80.68-59.51,146-157.42,146ZM1927.67,1929.74H1635.86V1409.43c0-121-42.25-203.51-147.87-203.51-80.64,0-128.61,55.68-149.62,109.43-7.69,19.2-9.61,46.08-9.61,73v541.42h-292V1290.45c0-117.11-3.83-215-7.66-299.51h253.34l13.6,130.46h5.76c38.31-61.43,132.52-151.66,289.85-151.66,192,0,336,128.65,336,405.11Z" transform="translate(-166.09 -193.1)"/></svg>